<svg xmlns="http://www.w3.org/2000/svg" version="1.1" xmlns:xlink="http://www.w3.org/1999/xlink" xmlns:svgjs="http://svgjs.dev/svgjs" width="100%" height="100%" viewBox="0 0 1000 600"><rect width="1000" height="600" x="0" y="0" fill="#df678c"/><g><circle r="166.66666666666666" cx="349.88801066080725" cy="372.1102201500175" fill="#3d155f" transform="matrix(0.6822351150544439,0,0,0.6822351150544439,0,46.13337166059648)"/><path d="M240.39393283938918 307.69734935720174L240.39393283938918 307.69734935720174Q226.43390750020438 307.69734935720174 219.34458814451096 314.8803601581246Q212.2864992705607 322.0633709590474 209.1322206145033 339.39628832649163L209.1322206145033 339.39628832649163Q209.1322206145033 339.83351507089566 207.88300134477757 339.83351507089566Q206.665012556795 339.83351507089566 206.665012556795 339.39628832649163L206.665012556795 339.39628832649163Q207.102239301199 336.4606230426362 207.539466045603 331.1826716280451Q208.00792327175014 325.90472021345397 208.57007194312672 319.81477627354116Q209.1322206145033 313.7560628153715 209.47575591367786 308.00965417463317Q209.78806073110928 302.29447601563805 209.78806073110928 298.70297061517664L209.78806073110928 298.70297061517664Q209.78806073110928 297.5786732724235 211.03728000083498 297.5786732724235Q212.2864992705607 297.5786732724235 212.2864992705607 298.70297061517664L212.2864992705607 298.70297061517664Q212.2864992705607 300.9515653006829 214.535093956067 301.9509407164635Q216.78368864157326 302.95031613224404 219.59443199845612 303.2938514314186Q222.40517535533894 303.6373867305932 224.4039261869001 303.6373867305932L224.4039261869001 303.6373867305932Q243.7668248676486 304.32445732894234 269.62566375097083 304.32445732894234L269.62566375097083 304.32445732894234Q285.58443992171675 304.32445732894234 294.9223539629164 303.9809220297677Q304.22903752237295 303.6373867305932 313.0048028921961 303.6373867305932L313.0048028921961 303.6373867305932Q320.65627091926603 303.6373867305932 324.809924991104 302.6380113148126Q328.963579062942 301.60740541728893 330.08787640569517 298.0159000168275L330.08787640569517 298.0159000168275Q330.3377202596404 297.1102160462764 331.4620176023935 297.1102160462764Q332.5863149451466 297.1102160462764 332.5863149451466 298.0159000168275L332.5863149451466 298.0159000168275Q332.3364710912015 301.3887920450869 331.89924434679745 307.22889213105464Q331.4620176023935 313.0689922170223 331.2121737484483 319.3775495291371Q330.9935603762463 325.686106841252 330.7749470040443 331.0577497010725Q330.55633363184234 336.4606230426362 330.55633363184234 339.39628832649163L330.55633363184234 339.39628832649163Q330.55633363184234 339.83351507089566 329.2134229168872 339.83351507089566Q327.83928172018886 339.83351507089566 327.83928172018886 339.39628832649163L327.83928172018886 339.39628832649163Q327.1834416035829 321.8447575868454 320.65627091926603 314.755438231152Q314.1291002349492 307.69734935720174 299.0760080347544 307.69734935720174L299.0760080347544 307.69734935720174Q289.61317206658214 307.69734935720174 284.89736932336757 308.57180284600975Q280.18156658015306 309.4774868165609 278.71373393822535 312.5068435456458Q277.24590129629763 315.56743075647375 277.24590129629763 322.31321481299256L277.24590129629763 322.31321481299256L277.24590129629763 425.96718371848334Q277.24590129629763 432.4943544028002 278.8386558651979 435.86724643105964Q280.4001799523551 439.24013845931904 285.0222912503402 440.3644358020722Q289.61317206658214 441.4887331448253 299.0760080347544 441.4887331448253L299.0760080347544 441.4887331448253Q299.7318481513604 441.4887331448253 299.7318481513604 442.83164385978046Q299.7318481513604 444.1745545747356 299.0760080347544 444.1745545747356L299.0760080347544 444.1745545747356Q293.23590794878675 444.1745545747356 285.80305329391877 443.9559412025336Q278.3701986390508 443.7373278303316 269.62566375097083 443.7373278303316L269.62566375097083 443.7373278303316Q261.2871251255517 443.7373278303316 253.88550095242684 443.9559412025336Q246.45264629755889 444.1745545747356 240.39393283938918 444.1745545747356L240.39393283938918 444.1745545747356Q239.92547561324204 444.1745545747356 239.92547561324204 442.83164385978046Q239.92547561324204 441.4887331448253 240.39393283938918 441.4887331448253L240.39393283938918 441.4887331448253Q249.6069249536163 441.4887331448253 254.44764962380341 440.3644358020722Q259.25714381224736 439.24013845931904 260.8498983811477 435.86724643105964Q262.41142246830486 432.4943544028002 262.41142246830486 425.96718371848334L262.41142246830486 425.96718371848334L262.41142246830486 321.8447575868454Q262.41142246830486 315.0989735303266 260.8498983811477 312.06961680124175Q259.25714381224736 309.0402600721569 254.54134106903285 308.35318947380773Q249.8255383258183 307.69734935720174 240.39393283938918 307.69734935720174ZM469.2821335348824 392.4568768080912L469.2821335348824 328.3719282711623Q469.2821335348824 317.3475682158329 464.4414088646953 311.85100342903974Q459.6319146762513 306.32320816050344 449.731851963675 306.32320816050344L449.731851963675 306.32320816050344Q449.0447813653259 306.32320816050344 449.0447813653259 304.98029744554833Q449.0447813653259 303.6373867305932 449.731851963675 303.6373867305932L449.731851963675 303.6373867305932Q454.8848814512936 303.6373867305932 460.2877547928573 303.9809220297677Q465.690628134421 304.32445732894234 472.21779881873783 304.32445732894234L472.21779881873783 304.32445732894234Q477.37082830635643 304.32445732894234 482.7737016479201 303.9809220297677Q488.1765749894838 303.6373867305932 492.6737643604963 303.6373867305932L492.6737643604963 303.6373867305932Q493.11099110490034 303.6373867305932 493.11099110490034 304.98029744554833Q493.11099110490034 306.32320816050344 492.6737643604963 306.32320816050344L492.6737643604963 306.32320816050344Q483.6793856184712 306.32320816050344 479.1821962474587 311.85100342903974Q474.6850068764461 317.3475682158329 474.6850068764461 328.3719282711623L474.6850068764461 328.3719282711623L474.6850068764461 392.2382634358892Q474.6850068764461 409.53995032159025 468.06414474689984 421.8135296466454Q461.41205213561045 434.05587848995737 449.51323859147305 440.5830491742742Q437.5831945655926 447.11021985859105 421.62441839484654 447.11021985859105L421.62441839484654 447.11021985859105Q404.9785716257515 447.11021985859105 392.4863789284944 440.5830491742742Q380.0254167129805 434.05587848995737 373.154710729489 422.03214301884736Q366.3152352277408 410.0084075477374 366.3152352277408 393.79978752304635L366.3152352277408 393.79978752304635L366.3152352277408 321.8447575868454Q366.3152352277408 315.3175869025286 364.9410940310425 312.06961680124175Q363.59818331608733 308.8216466999549 359.44452924424934 307.57242743022914Q355.29087517241135 306.32320816050344 347.20218040093744 306.32320816050344L347.20218040093744 306.32320816050344Q346.73372317479027 306.32320816050344 346.73372317479027 304.98029744554833Q346.73372317479027 303.6373867305932 347.20218040093744 303.6373867305932L347.20218040093744 303.6373867305932Q352.573823260758 303.6373867305932 359.2259158720474 303.9809220297677Q365.84677800159363 304.32445732894234 373.49824602866363 304.32445732894234L373.49824602866363 304.32445732894234Q381.3683274279356 304.32445732894234 388.11411148445444 303.9809220297677Q394.85989554097324 303.6373867305932 399.7943116563898 303.6373867305932L399.7943116563898 303.6373867305932Q400.48138225473895 303.6373867305932 400.48138225473895 304.98029744554833Q400.48138225473895 306.32320816050344 399.7943116563898 306.32320816050344L399.7943116563898 306.32320816050344Q391.70561688491586 306.32320816050344 387.67688474005047 307.69734935720174Q383.6169221134419 309.0402600721569 382.2740113984867 312.4131521004163Q380.93110068353155 315.7860441286757 380.93110068353155 322.31321481299256L380.93110068353155 322.31321481299256L380.93110068353155 385.92970612377434Q380.93110068353155 412.6942289776477 392.95483615464155 426.5293323898599Q404.9785716257515 440.3644358020722 426.5588345102632 440.3644358020722L426.5588345102632 440.3644358020722Q446.7961866798196 440.3644358020722 458.039160107351 427.65362973261307Q469.2821335348824 414.942823663154 469.2821335348824 392.4568768080912L469.2821335348824 392.4568768080912Z " fill="#df678c" transform="matrix(0.6822351150544439,0,0,0.6822351150544439,0,46.13337166059648)"/><path d="M630.4194775160083 321.13961396841245L630.4194775160083 321.13961396841245Q617.7828400745041 321.13961396841245 611.3655767652838 327.6416869248912Q604.9765833384829 334.14375988136993 602.121325214116 349.8335446241773L602.121325214116 349.8335446241773Q602.121325214116 350.22932297804994 600.9905299173372 350.22932297804994Q599.8880045029778 350.22932297804994 599.8880045029778 349.8335446241773L599.8880045029778 349.8335446241773Q600.2837828568504 347.1761756767469 600.679561210723 342.398565547856Q601.1036094470151 337.6209554189651 601.6124673305656 332.1083283471679Q602.121325214116 326.62397115779015 602.4322939207303 321.42231279260716Q602.714992744925 316.2489243098437 602.714992744925 312.9978878316043L602.714992744925 312.9978878316043Q602.714992744925 311.9801720645033 603.8457880417039 311.9801720645033Q604.9765833384829 311.9801720645033 604.9765833384829 312.9978878316043L604.9765833384829 312.9978878316043Q604.9765833384829 315.03331936580634 607.0120148726849 315.9379556032295Q609.0474464068869 316.84259184065263 611.5917358246395 317.1535605472668Q614.1360252423921 317.464529253881 615.9452977172383 317.464529253881L615.9452977172383 317.464529253881Q633.4726248173114 318.0864666671094 656.8800874606349 318.0864666671094L656.8800874606349 318.0864666671094Q671.3259973769855 318.0864666671094 679.7786922204077 317.7754979604952Q688.2031171814107 317.464529253881 696.1469541412825 317.464529253881L696.1469541412825 317.464529253881Q703.0730753340533 317.464529253881 706.8329696958432 316.55989301645786Q710.592864057633 315.6269868966153 711.610579824734 312.3759504183759L711.610579824734 312.3759504183759Q711.8367388840899 311.5561238282112 712.854454651191 311.5561238282112Q713.872170418292 311.5561238282112 713.872170418292 312.3759504183759L713.872170418292 312.3759504183759Q713.6460113589361 315.42909771967896 713.2502330050636 320.71556573212035Q712.854454651191 326.0020337445618 712.6282955918351 331.7125499932953Q712.4304064148988 337.42306624202877 712.2325172379625 342.28548601817806Q712.0346280610262 347.1761756767469 712.0346280610262 349.8335446241773L712.0346280610262 349.8335446241773Q712.0346280610262 350.22932297804994 710.8190231169889 350.22932297804994Q709.5751482905321 350.22932297804994 709.5751482905321 349.8335446241773L709.5751482905321 349.8335446241773Q708.9814807597231 333.9458707044336 703.0730753340533 327.5286073952133Q697.1646699083835 321.13961396841245 683.5385865821977 321.13961396841245L683.5385865821977 321.13961396841245Q674.9728122090974 321.13961396841245 670.704059963757 321.9311706761577Q666.4353077184167 322.75099726632243 665.1066232447014 325.4931758610113Q663.7779387709862 328.2636243381196 663.7779387709862 334.3699189407257L663.7779387709862 334.3699189407257L663.7779387709862 428.1976586909558Q663.7779387709862 434.1060641166256 665.2197027743794 437.1592114179287Q666.633196895353 440.2123587192317 670.817139493435 441.23007448633274Q674.9728122090974 442.2477902534337 683.5385865821977 442.2477902534337L683.5385865821977 442.2477902534337Q684.1322541130066 442.2477902534337 684.1322541130066 443.4633951974711Q684.1322541130066 444.6790001415084 683.5385865821977 444.6790001415084L683.5385865821977 444.6790001415084Q678.2521185697562 444.6790001415084 671.5238865539218 444.4811109645721Q664.7956545380872 444.2832217876358 656.8800874606349 444.2832217876358L656.8800874606349 444.2832217876358Q649.3320288546356 444.2832217876358 642.6320667212206 444.4811109645721Q635.9038347053861 444.6790001415084 630.4194775160083 444.6790001415084L630.4194775160083 444.6790001415084Q629.9954292797163 444.6790001415084 629.9954292797163 443.4633951974711Q629.9954292797163 442.2477902534337 630.4194775160083 442.2477902534337L630.4194775160083 442.2477902534337Q638.7590928297528 442.2477902534337 643.140924604771 441.23007448633274Q647.49448649737 440.2123587192317 648.936250500763 437.1592114179287Q650.3497446217366 434.1060641166256 650.3497446217366 428.1976586909558L650.3497446217366 428.1976586909558L650.3497446217366 333.9458707044336Q650.3497446217366 327.8395761018275 648.936250500763 325.0973975071387Q647.49448649737 322.3552189124498 643.2257342520295 321.7332814992214Q638.956982006689 321.13961396841245 630.4194775160083 321.13961396841245ZM750.0858897976366 447.1102100295831L750.0858897976366 447.1102100295831Q737.4775222385517 447.1102100295831 728.9117478654514 441.51277331052745Q720.3742433747707 435.9153365914719 716.1054911294302 426.98205374691844Q711.8367388840899 418.0205010199456 711.8367388840899 408.04123252587175L711.8367388840899 408.04123252587175Q711.8367388840899 395.6307541437232 717.6320647800818 385.7645651793272Q723.4273906760737 375.87010633251174 733.2935796404697 370.0747804365198Q743.1597686048657 364.27945454052787 755.5985168694338 364.27945454052787L755.5985168694338 364.27945454052787Q766.793390307545 364.27945454052787 772.7866053804731 369.6790020826472Q778.7798204534014 375.0785496247665 778.7798204534014 384.43588070561196L778.7798204534014 384.43588070561196Q778.7798204534014 386.6692014167503 778.3840420995288 387.88480636078765Q777.9882637456561 389.100411304825 776.3486105653267 389.100411304825L776.3486105653267 389.100411304825L764.5317997139871 389.100411304825Q765.3516263041518 379.1494126931706 760.9697945291335 373.74986515105127Q756.6162326365347 368.35031760893196 748.6723956766629 368.35031760893196L748.6723956766629 368.35031760893196Q737.2796330616154 368.35031760893196 731.2581481062676 376.8878220996127Q725.2649330333395 385.453596472713 725.2649330333395 400.0973955659999L725.2649330333395 400.0973955659999Q725.2649330333395 411.71631724040316 729.0248273951294 420.64960008495655Q732.7847217569192 429.61115281192946 740.0218116563042 434.81281117711245Q747.2306316732697 439.9861996598759 757.2099001673437 439.9861996598759L757.2099001673437 439.9861996598759Q762.4963681797851 439.9861996598759 768.0089952515823 438.374816361966Q773.49335244096 436.73516318163655 778.3840420995288 433.28623752646087L778.3840420995288 433.28623752646087Q778.7798204534014 432.8621892901688 779.5148373963077 433.79509541001136Q780.2215844567945 434.69973164743453 779.7975362205024 435.32166906066294L779.7975362205024 435.32166906066294Q772.475636673859 441.62585284020537 765.1537371272155 444.36803143489425Q757.831837580572 447.1102100295831 750.0858897976366 447.1102100295831ZM767.811106074646 389.100411304825L721.589848318808 389.52445954111704L721.3919591418717 386.8670905936866L767.811106074646 385.8493748265856L767.811106074646 389.100411304825ZM840.2668147157547 444.6790001415084L840.2668147157547 444.6790001415084Q839.6448773025262 444.6790001415084 839.6448773025262 443.4633951974711Q839.6448773025262 442.2477902534337 840.2668147157547 442.2477902534337L840.2668147157547 442.2477902534337Q846.3731093183608 442.2477902534337 846.9667768491697 440.60813707310433Q847.5887142623981 438.9684838927749 844.535566961095 434.3039532935619L844.535566961095 434.3039532935619L810.5551682928888 382.99411670221883Q805.0425412210916 374.8523905654107 799.7560732086502 371.71443361684925Q794.4696051962087 368.5482067858683 790.7945204816773 368.5482067858683L790.7945204816773 368.5482067858683Q790.3987421278047 368.5482067858683 790.3987421278047 367.3326018418309Q790.3987421278047 366.1169968977936 790.7945204816773 366.1169968977936L790.7945204816773 366.1169968977936Q793.8476677829804 366.1169968977936 797.0987042612197 366.31488607472994Q800.3780106218785 366.51277525166626 803.4311579231816 366.51277525166626L803.4311579231816 366.51277525166626Q810.1311200565966 366.51277525166626 815.2196988921017 366.31488607472994Q820.3082777276069 366.1169968977936 824.3791407960109 366.1169968977936L824.3791407960109 366.1169968977936Q824.8031890323031 366.1169968977936 824.8031890323031 367.3326018418309Q824.8031890323031 368.5482067858683 824.3791407960109 368.5482067858683L824.3791407960109 368.5482067858683Q818.696894429697 368.5482067858683 817.8770678395322 370.18785996619766Q817.0572412493675 371.79924326410764 820.3082777276069 376.4920437457401L820.3082777276069 376.4920437457401L854.3169462782325 427.7736104546637Q859.8013034676103 436.1414956508276 865.2856606569881 439.19464295213066Q870.7982877287852 442.2477902534337 874.4451025608972 442.2477902534337L874.4451025608972 442.2477902534337Q874.8691507971894 442.2477902534337 874.8691507971894 443.4633951974711Q874.8691507971894 444.6790001415084 874.4451025608972 444.6790001415084L874.4451025608972 444.6790001415084Q871.3919552595942 444.6790001415084 867.9430296044184 444.4811109645721Q864.4941039492428 444.2832217876358 861.4409566479397 444.2832217876358L861.4409566479397 444.2832217876358Q854.5148354551688 444.2832217876358 849.5110662669222 444.4811109645721Q844.535566961095 444.6790001415084 840.2668147157547 444.6790001415084ZM790.2008529508684 444.6790001415084L790.2008529508684 444.6790001415084Q789.7768047145762 444.6790001415084 789.7768047145762 443.4633951974711Q789.7768047145762 442.2477902534337 790.2008529508684 442.2477902534337L790.2008529508684 442.2477902534337Q795.2894317863735 442.2477902534337 801.4805360362379 438.4596260092244Q807.699910168522 434.69973164743453 813.1842673578997 427.17994292385475L813.1842673578997 427.17994292385475L829.467719631516 404.59230687069606L831.9271994020102 406.6277384048981L816.8593520724312 428.3955478678921Q813.8062047711281 432.8621892901688 812.9863781809634 436.02841612114975Q812.1665515907987 439.19464295213066 814.7108410085513 440.72121660278225Q817.2551304263038 442.2477902534337 824.3791407960109 442.2477902534337L824.3791407960109 442.2477902534337Q825.0010782092394 442.2477902534337 825.0010782092394 443.4633951974711Q825.0010782092394 444.6790001415084 824.3791407960109 444.6790001415084L824.3791407960109 444.6790001415084Q819.7146101967979 444.6790001415084 815.3327784217796 444.4811109645721Q810.9509466467614 444.2832217876358 804.0248254539906 444.2832217876358L804.0248254539906 444.2832217876358Q799.5581840317138 444.2832217876358 796.8160054370251 444.4811109645721Q794.0455569599167 444.6790001415084 790.2008529508684 444.6790001415084ZM848.606430029499 383.61605411544724L832.5208669328191 405.38386357844126L830.485435398617 403.34843204423925L844.7334561380312 382.40044917140995Q849.6241457966 375.0785496247665 848.8043192064354 371.79924326410764Q847.9844926162707 368.5482067858683 837.2136674144515 368.5482067858683L837.2136674144515 368.5482067858683Q836.7896191781595 368.5482067858683 836.7896191781595 367.3326018418309Q836.7896191781595 366.1169968977936 837.2136674144515 366.1169968977936L837.2136674144515 366.1169968977936Q842.1043570730203 366.1169968977936 846.4579189656191 366.31488607472994Q850.8397507406374 366.51277525166626 857.7658719334082 366.51277525166626L857.7658719334082 366.51277525166626Q862.2325133556849 366.51277525166626 865.0029618327933 366.31488607472994Q867.745140427482 366.1169968977936 871.6181143189499 366.1169968977936L871.6181143189499 366.1169968977936Q872.0138926728225 366.1169968977936 872.0138926728225 367.3326018418309Q872.0138926728225 368.5482067858683 871.6181143189499 368.5482067858683L871.6181143189499 368.5482067858683Q866.5295354834448 368.5482067858683 860.5080505280971 372.1102119707218Q854.5148354551688 375.6722171555754 848.606430029499 383.61605411544724L848.606430029499 383.61605411544724ZM915.1537332449379 447.1102100295831L915.1537332449379 447.1102100295831Q910.2913134687886 447.1102100295831 905.7964021640926 445.58363637893154Q901.3297607418158 444.05706272828 898.4745026174489 440.410247896168Q895.6192444930823 436.73516318163655 895.6192444930823 430.4309794020941L895.6192444930823 430.4309794020941L895.6192444930823 382.5983383483462Q895.6192444930823 377.70764868977744 895.0255769622734 375.2764388017028Q894.403639549045 372.8169590312087 892.1703188379065 372.1102119707218Q889.9369981267682 371.403464910235 885.2441976451357 371.403464910235L885.2441976451357 371.403464910235Q884.4243710549711 371.403464910235 884.4243710549711 370.0747804365198Q884.4243710549711 368.7460959628046 885.2441976451357 368.7460959628046L885.2441976451357 368.7460959628046Q893.3859237819439 368.5482067858683 898.587582147127 364.27945454052787Q903.7609706298904 360.0107022951875 904.3829080431188 353.282470279353L904.3829080431188 353.282470279353Q904.3829080431188 352.68880274854405 905.9094816937704 352.68880274854405Q907.4360553444219 352.68880274854405 907.4360553444219 353.282470279353L907.4360553444219 353.282470279353L907.4360553444219 423.50485820932334Q907.4360553444219 431.8444735230678 911.5917280600844 435.9153365914719Q915.7756706581664 439.9861996598759 923.521618441102 439.9861996598759L923.521618441102 439.9861996598759Q928.8080864535433 439.9861996598759 932.9637591692058 438.2617368322881Q937.1477017672878 436.53727400470024 939.8050707147181 434.3039532935619L939.8050707147181 434.3039532935619Q940.5966274224635 433.8799050572698 941.3316443653697 434.81281117711245Q942.0383914258566 435.71744741453557 941.218564835692 436.3393848277639L941.218564835692 436.3393848277639Q933.698776112112 442.021631194078 927.6772911567643 444.5659206118305Q921.6840760838361 447.1102100295831 915.1537332449379 447.1102100295831ZM934.9143810561495 376.0962653918675L934.9143810561495 376.0962653918675Q926.9705440962775 374.06083385766544 919.6486445496341 373.43889644443703Q912.3267450029907 372.8169590312087 903.9588598068267 372.8169590312087L903.9588598068267 372.8169590312087L903.9588598068267 368.35031760893196Q912.100585943635 368.35031760893196 919.6486445496341 367.72838019570355Q927.1684332732139 367.1347126648946 935.7342076463142 366.31488607472994L935.7342076463142 366.31488607472994Q936.1299860001868 366.31488607472994 936.6388438837373 367.72838019570355Q937.1477017672878 369.1701441990967 937.1477017672878 371.20557573329876L937.1477017672878 371.20557573329876Q937.1477017672878 372.61906985427237 936.440954706801 374.4566122115381Q935.7342076463142 376.2941545688038 934.9143810561495 376.0962653918675ZM982.7470221098972 446.31865332183787L982.7470221098972 446.31865332183787Q972.7677536158234 446.31865332183787 966.9724277198316 439.9013900126175Q961.1771018238396 433.4841267033972 961.1771018238396 421.27153749818495L961.1771018238396 421.27153749818495L961.1771018238396 390.118127071926Q961.1771018238396 382.20255999447363 959.8484173501244 378.64055480962Q958.5197328764091 375.0785496247665 955.0708072212335 375.0785496247665L955.0708072212335 375.0785496247665Q952.2155490968668 375.0785496247665 948.1446860284627 377.1139811589685L948.1446860284627 377.1139811589685Q947.324859438298 377.3118703359048 946.8160015547475 376.0962653918675Q946.3071436711969 374.8523905654107 947.1269702613615 374.6545013884744L947.1269702613615 374.6545013884744L969.7146063145203 364.4773437174642Q970.110384668393 364.27945454052787 970.534432904685 364.27945454052787L970.534432904685 364.27945454052787Q971.1281004354939 364.27945454052787 971.8631173784003 364.78831242407836Q972.5698644388871 365.2971703076289 972.5698644388871 365.9191077208573L972.5698644388871 365.9191077208573L972.5698644388871 414.5433054823505Q972.5698644388871 426.5580055106264 976.8386166842275 432.3533314066183Q981.1073689295679 438.1769271850297 989.6731433026682 438.1769271850297L989.6731433026682 438.1769271850297Q997.3908212031843 438.1769271850297 1005.2215786333782 433.4841267033972Q1013.0806059459916 428.7913262217647 1018.9607414892419 420.8757591443123L1018.9607414892419 420.8757591443123L1019.978457256343 423.1090798554507Q1010.6211261754975 435.1237798837266 1001.5747638012663 440.72121660278225Q992.5001315446154 446.31865332183787 982.7470221098972 446.31865332183787ZM1026.5088000952412 365.9191077208573L1026.5088000952412 365.9191077208573L1026.5088000952412 422.9111906785144Q1026.5088000952412 429.8090419888658 1028.1201833931511 432.8621892901688Q1029.7598365734807 435.9153365914719 1033.6328104649483 435.9153365914719L1033.6328104649483 435.9153365914719Q1035.6682419991503 435.9153365914719 1038.212531416903 435.208589530985Q1040.7568208346554 434.5018424704982 1044.4036356667675 433.08834834952455L1044.4036356667675 433.08834834952455Q1045.4213514338685 432.6643001132325 1045.8453996701605 433.79509541001136Q1046.2411780240332 434.89762082437085 1045.4213514338685 435.32166906066294L1045.4213514338685 435.32166906066294L1021.6181104366724 446.51654249877413Q1021.2223320827998 446.71443167571044 1020.7982838465076 446.71443167571044L1020.7982838465076 446.71443167571044Q1019.1869005485977 446.71443167571044 1017.1514690143956 442.3325999006922Q1015.1160374801937 437.9507681256739 1015.1160374801937 429.8090419888658L1015.1160374801937 429.8090419888658L1015.1160374801937 390.118127071926Q1015.1160374801937 382.20255999447363 1013.7873530064784 378.64055480962Q1012.4586685327631 375.0785496247665 1009.0097428775875 375.0785496247665L1009.0097428775875 375.0785496247665Q1006.1544847532207 375.0785496247665 1002.0836216848166 377.1139811589685L1002.0836216848166 377.1139811589685Q1001.2637950946519 377.3118703359048 1000.8680167407795 376.0962653918675Q1000.4439685044873 374.8523905654107 1001.2637950946519 374.6545013884744L1001.2637950946519 374.6545013884744L1023.8514311478107 364.4773437174642Q1024.2754793841027 364.27945454052787 1024.473368561039 364.27945454052787L1024.473368561039 364.27945454052787Q1025.067036091848 364.27945454052787 1025.8020530347544 364.78831242407836Q1026.5088000952412 365.2971703076289 1026.5088000952412 365.9191077208573ZM1084.3207096430629 447.1102100295831L1084.3207096430629 447.1102100295831Q1079.4300199844943 447.1102100295831 1074.9351086797978 445.58363637893154Q1070.4684672575213 444.05706272828 1067.6132091331544 440.410247896168Q1064.7579510087878 436.73516318163655 1064.7579510087878 430.4309794020941L1064.7579510087878 430.4309794020941L1064.7579510087878 382.5983383483462Q1064.7579510087878 377.70764868977744 1064.1642834779789 375.2764388017028Q1063.5423460647505 372.8169590312087 1061.309025353612 372.1102119707218Q1059.0757046424737 371.403464910235 1054.3829041608412 371.403464910235L1054.3829041608412 371.403464910235Q1053.5630775706766 371.403464910235 1053.5630775706766 370.0747804365198Q1053.5630775706766 368.7460959628046 1054.3829041608412 368.7460959628046L1054.3829041608412 368.7460959628046Q1062.5246302976493 368.5482067858683 1067.7262886628323 364.27945454052787Q1072.899677145596 360.0107022951875 1073.5216145588242 353.282470279353L1073.5216145588242 353.282470279353Q1073.5216145588242 352.68880274854405 1075.048188209476 352.68880274854405Q1076.5747618601274 352.68880274854405 1076.5747618601274 353.282470279353L1076.5747618601274 353.282470279353L1076.5747618601274 423.50485820932334Q1076.5747618601274 431.8444735230678 1080.7587044582094 435.9153365914719Q1084.9143771738718 439.9861996598759 1092.6603249568075 439.9861996598759L1092.6603249568075 439.9861996598759Q1097.9467929692487 439.9861996598759 1102.1307355673307 438.2617368322881Q1106.2864082829933 436.53727400470024 1108.9437772304236 434.3039532935619L1108.9437772304236 434.3039532935619Q1109.7636038205883 433.8799050572698 1110.4703508810753 434.81281117711245Q1111.177097941562 435.71744741453557 1110.3572713513972 436.3393848277639L1110.3572713513972 436.3393848277639Q1102.8374826278177 442.021631194078 1096.8159976724698 444.5659206118305Q1090.8227825995416 447.1102100295831 1084.3207096430629 447.1102100295831ZM1104.053087571855 376.0962653918675L1104.053087571855 376.0962653918675Q1096.109250611983 374.06083385766544 1088.7873510653396 373.43889644443703Q1081.4654515186962 372.8169590312087 1073.1258362049516 372.8169590312087L1073.1258362049516 372.8169590312087L1073.1258362049516 368.35031760893196Q1081.26756234176 368.35031760893196 1088.7873510653396 367.72838019570355Q1096.3071397889194 367.1347126648946 1104.8729141620197 366.31488607472994L1104.8729141620197 366.31488607472994Q1105.2686925158923 366.31488607472994 1105.7775503994426 367.72838019570355Q1106.2864082829933 369.1701441990967 1106.2864082829933 371.20557573329876L1106.2864082829933 371.20557573329876Q1106.2864082829933 372.61906985427237 1105.5796612225065 374.4566122115381Q1104.8729141620197 376.2941545688038 1104.053087571855 376.0962653918675ZM1125.6230078579126 444.6790001415084L1125.6230078579126 444.6790001415084Q1125.22722950404 444.6790001415084 1125.22722950404 443.4633951974711Q1125.22722950404 442.2477902534337 1125.6230078579126 442.2477902534337L1125.6230078579126 442.2477902534337Q1133.5668448177844 442.2477902534337 1136.111134235537 439.47734177632543Q1138.6554236532895 436.73516318163655 1138.6554236532895 428.1976586909558L1138.6554236532895 428.1976586909558L1138.6554236532895 390.118127071926Q1138.6554236532895 382.99411670221883 1137.241929532316 379.65827057672107Q1135.800165528923 376.2941545688038 1131.927191637455 376.2941545688038L1131.927191637455 376.2941545688038Q1130.3158083395451 376.2941545688038 1128.0824876284069 377.00090162929064Q1125.820897034849 377.70764868977744 1122.7677497335458 379.1494126931706L1122.7677497335458 379.1494126931706Q1121.9761930258005 379.3473018701069 1121.4673351422502 378.216506573328Q1120.9584772586995 377.1139811589685 1121.5521447895085 376.6899329226764L1121.5521447895085 376.6899329226764L1148.0127547341351 364.4773437174642Q1148.6346921473635 364.27945454052787 1148.8325813242998 364.27945454052787L1148.8325813242998 364.27945454052787Q1149.2283596781722 364.27945454052787 1149.8502970914008 364.78831242407836Q1150.4722345046291 365.2971703076289 1150.4722345046291 365.9191077208573L1150.4722345046291 365.9191077208573Q1150.4722345046291 367.53049101876724 1150.2460754452734 373.83467479830966Q1150.048186268337 380.1671284602716 1150.048186268337 389.92023789498967L1150.048186268337 389.92023789498967L1150.048186268337 428.1976586909558Q1150.048186268337 436.73516318163655 1152.3945865091532 439.47734177632543Q1154.7409867499696 442.2477902534337 1162.8827128867777 442.2477902534337L1162.8827128867777 442.2477902534337Q1163.4763804175866 442.2477902534337 1163.4763804175866 443.4633951974711Q1163.4763804175866 444.6790001415084 1162.8827128867777 444.6790001415084L1162.8827128867777 444.6790001415084Q1159.2076281722464 444.6790001415084 1154.4300180433554 444.4811109645721Q1149.6524079144644 444.2832217876358 1144.365939902023 444.2832217876358L1144.365939902023 444.2832217876358Q1139.0512020071624 444.2832217876358 1134.2735918782714 444.4811109645721Q1129.4959817493805 444.6790001415084 1125.6230078579126 444.6790001415084ZM1142.7262867216937 340.4762135433318L1142.7262867216937 340.4762135433318Q1138.4575344763534 340.4762135433318 1136.111134235537 338.214622949774Q1133.7647339947207 335.98130223863564 1133.7647339947207 331.9104391702316L1133.7647339947207 331.9104391702316Q1133.7647339947207 327.8395761018275 1136.111134235537 325.60625539068917Q1138.4575344763534 323.3729346795508 1142.7262867216937 323.3729346795508L1142.7262867216937 323.3729346795508Q1146.7971497900976 323.3729346795508 1149.030470501236 325.60625539068917Q1151.2637912123746 327.8395761018275 1151.2637912123746 331.9104391702316L1151.2637912123746 331.9104391702316Q1151.2637912123746 340.4762135433318 1142.7262867216937 340.4762135433318ZM1178.5442277471657 444.6790001415084L1178.5442277471657 444.6790001415084Q1177.9505602163567 444.6790001415084 1177.9505602163567 443.4633951974711Q1177.9505602163567 442.2477902534337 1178.5442277471657 442.2477902534337L1178.5442277471657 442.2477902534337Q1186.4880647070377 442.2477902534337 1188.9192745951123 439.47734177632543Q1191.3787543656063 436.73516318163655 1191.3787543656063 428.1976586909558L1191.3787543656063 428.1976586909558L1191.3787543656063 322.94888644325874Q1191.3787543656063 315.8248760735516 1189.9369903622132 312.4890299480538Q1188.5234962412396 309.12491394013654 1184.8484115267079 309.12491394013654L1184.8484115267079 309.12491394013654Q1181.795264225405 309.12491394013654 1175.4910804458625 311.9801720645033L1175.4910804458625 311.9801720645033Q1174.8974129150536 312.3759504183759 1174.2754755018252 311.16034547433856Q1173.6535380885966 309.94474053030126 1174.4733646787618 309.7185814709455L1174.4733646787618 309.7185814709455L1200.5381962695155 297.3081030887969Q1200.9339746233882 297.1102139118606 1201.5559120366165 297.1102139118606L1201.5559120366165 297.1102139118606Q1201.9516903904891 297.1102139118606 1202.658437450976 297.6190717954111Q1203.3934543938822 298.12792967896166 1203.3934543938822 298.74986709219L1203.3934543938822 298.74986709219L1203.3934543938822 428.1976586909558Q1203.3934543938822 436.73516318163655 1205.6267751050204 439.47734177632543Q1207.860095816159 442.2477902534337 1216.001821952967 442.2477902534337L1216.001821952967 442.2477902534337Q1216.6237593661954 442.2477902534337 1216.6237593661954 443.4633951974711Q1216.6237593661954 444.6790001415084 1216.001821952967 444.6790001415084L1216.001821952967 444.6790001415084Q1212.5528962977914 444.6790001415084 1207.6622066392224 444.4811109645721Q1202.7715169806538 444.2832217876358 1197.287159791276 444.2832217876358L1197.287159791276 444.2832217876358Q1191.9724218964152 444.2832217876358 1186.996922590588 444.4811109645721Q1182.0214232847607 444.6790001415084 1178.5442277471657 444.6790001415084ZM1243.2822584877583 378.52747527994217L1243.2822584877583 378.52747527994217Q1243.2822584877583 383.81394329238356 1246.024437082447 387.489028006915Q1248.766615677136 391.135842839027 1252.950558275218 393.6801322567796Q1257.1062309908805 396.2244216745321 1261.799031472513 398.68390144502627L1261.799031472513 398.68390144502627Q1267.0854994849542 401.31300051003717 1271.778299966587 404.28133816408183Q1276.4428305657998 407.221405935707 1279.4959778671027 411.405348533789Q1282.549125168406 415.56102124945147 1282.549125168406 422.289253265286L1282.549125168406 422.289253265286Q1282.549125168406 428.7913262217647 1279.2980886901664 434.3887629408203Q1276.0470522119272 439.9861996598759 1269.6297889027069 443.4633951974711Q1263.2125255934866 446.91232085264676 1253.855194512641 446.91232085264676L1253.855194512641 446.91232085264676Q1248.766615677136 446.91232085264676 1244.102085077923 445.58363637893154Q1239.4092845962905 444.2832217876358 1234.3207057607854 440.80602625004065L1234.3207057607854 440.80602625004065Q1233.924927406913 440.410247896168 1233.5008791706207 439.7883104829396Q1233.1051008167478 439.19464295213066 1233.1051008167478 438.374816361966L1233.1051008167478 438.374816361966L1232.681052580456 422.4871424422223Q1232.681052580456 421.89347491141336 1233.8118478772349 421.78039538173545Q1234.9426431740137 421.6673158520576 1235.14053235095 422.289253265286L1235.14053235095 422.289253265286Q1237.5717422390248 429.21537445805683 1241.2468269535561 433.79509541001136Q1244.893641785668 438.374816361966 1249.5864422673008 440.72121660278225Q1254.279242748933 443.039346961179 1259.5657107613745 443.039346961179L1259.5657107613745 443.039346961179Q1266.0677837178532 443.039346961179 1269.6297889027069 439.7883104829396Q1273.1917940875605 436.53727400470024 1272.9939049106242 430.2330902251578L1272.9939049106242 430.2330902251578Q1272.796015733688 424.324684799488 1269.940757609321 420.64960008495655Q1267.0854994849542 417.0027852528446 1262.9298267692918 414.45849583509204Q1258.7458841712098 411.91420641733947 1254.279242748933 409.68088570620114L1254.279242748933 409.68088570620114Q1249.1906639134281 407.221405935707 1244.6109429614735 404.47922734101815Q1240.0312220095188 401.7370487463293 1237.0628843554741 397.4682965009889Q1234.122816583849 393.17127437322904 1234.122816583849 386.2734230628777L1234.122816583849 386.2734230628777Q1234.122816583849 378.32958610300585 1238.1936796522532 373.3258169147592Q1242.2645427206571 368.35031760893196 1248.5687265001998 366.00391736811576Q1254.872910279742 363.6575171272995 1261.799031472513 363.6575171272995L1261.799031472513 363.6575171272995Q1265.6720053639806 363.6575171272995 1269.3188201960925 364.27945454052787Q1272.9939049106242 364.9013919537563 1276.6689896251555 366.71066442860257L1276.6689896251555 366.71066442860257Q1278.4782621000018 367.3326018418309 1278.4782621000018 368.97225502216037L1278.4782621000018 368.97225502216037Q1278.4782621000018 372.22329150039974 1278.2803729230654 375.7852966852533Q1278.0824837461291 379.3473018701069 1278.0824837461291 383.81394329238356L1278.0824837461291 383.81394329238356Q1278.0824837461291 384.23799152867565 1276.8668788020918 384.23799152867565Q1275.6512738580545 384.23799152867565 1275.6512738580545 383.81394329238356L1275.6512738580545 383.81394329238356Q1275.6512738580545 379.1494126931706 1272.3719674973959 375.4743279786391Q1269.1209310191564 371.79924326410764 1264.2302413605876 369.6790020826472Q1259.3678215844384 367.53049101876724 1254.4771319258693 367.53049101876724L1254.4771319258693 367.53049101876724Q1249.5864422673008 367.53049101876724 1246.4202154363197 370.18785996619766Q1243.2822584877583 372.8169590312087 1243.2822584877583 378.52747527994217Z " fill="#3d155f" transform="matrix(0.6822351150544439,0,0,0.6822351150544439,0,46.13337166059648)"/></g></svg>